# xmcd CD database file
#
# Track frame offsets:
#	150
#	17460
#	34962
#	57075
#	81262
#	95175
#	118150
#	140040
#	157459
#	177387
#	200222
#	217470
#	239112
#
# Disc length: 3469 seconds
#
# Revision: 2
# Processed by: cddbd v1.5.1PL2 Copyright (c) Steve Scherf et al.
# Submitted via: CDex 1.51
#
DISCID=d80d8b0d
DTITLE=Coco Montoya - Just Let Go
DYEAR=1997
DGENRE=Blues
TTITLE0=Fear No Evil
TTITLE1=What's Done Is Done
TTITLE2=Just Let Go
TTITLE3=My Side Of The Fence
TTITLE4=Cool Like Dat
TTITLE5=Do What You Want To Do
TTITLE6=Give It To A Good Man
TTITLE7=Hard Love
TTITLE8=Beginner At The Blues
TTITLE9=Mother And Daughter
TTITLE10=Nothing's Too Good For My Baby
TTITLE11=Never Seen You Cry This Way before
TTITLE12=Sending Me Angels
EXTD=YEAR: 1997
EXTT0=
EXTT1=
EXTT2=
EXTT3=
EXTT4=
EXTT5=
EXTT6=
EXTT7=
EXTT8=
EXTT9=
EXTT10=
EXTT11=
EXTT12=
PLAYORDER=
